<?xml version="1.0" encoding="utf-8"?>
<!-- Generator: Adobe Illustrator 24.1.0, SVG Export Plug-In . SVG Version: 6.00 Build 0)  -->
<svg version="1.1" id="Layer_1" xmlns="http://www.w3.org/2000/svg" xmlns:xlink="http://www.w3.org/1999/xlink" x="0px" y="0px"
	 viewBox="0 0 605.9 704.1" style="enable-background:new 0 0 605.9 704.1;" xml:space="preserve">
<style type="text/css">
    .st0{fill-rule:evenodd;clip-rule:evenodd;fill:#CCCCCC;}
    .st1{fill-rule:evenodd;clip-rule:evenodd;fill:#CCCCCC;}
    .st2{fill-rule:evenodd;clip-rule:evenodd;fill:#CCCCCC;}
    .st3{fill-rule:evenodd;clip-rule:evenodd;fill:#CCCCCC;}
    .st4{fill-rule:evenodd;clip-rule:evenodd;fill:#CCCCCC;}
    .st5{fill-rule:evenodd;clip-rule:evenodd;fill:#CCCCCC;}
    .st6{fill-rule:evenodd;clip-rule:evenodd;fill:#CCCCCC;}
    .st7{fill-rule:evenodd;clip-rule:evenodd;fill:#CCCCCC;}
    .st8{fill-rule:evenodd;clip-rule:evenodd;fill:#CCCCCC;}
    .st9{fill-rule:evenodd;clip-rule:evenodd;fill:#CCCCCC;}
    .st10{fill-rule:evenodd;clip-rule:evenodd;fill:#CCCCCC;}
    .st11{fill-rule:evenodd;clip-rule:evenodd;fill:#CCCCCC;}
    .st12{fill-rule:evenodd;clip-rule:evenodd;fill:#CCCCCC;}
    .st13{fill-rule:evenodd;clip-rule:evenodd;fill:#CCCCCC;}
    .st14{fill-rule:evenodd;clip-rule:evenodd;fill:#CCCCCC;}
    .st15{fill-rule:evenodd;clip-rule:evenodd;fill:#CCCCCC;}
</style>

<g>
	<path class="st0" d="M260.8,232.1c-4.6-2.7-8.7-6.1-12.5-10c-5.4-6.6-10.6-13.2-15.5-20c-4.1-6.5-7.9-13.1-11.5-20
		c-23-54.1-16.7-104.4,19-151c7.4-8.4,16.3-10.2,26.5-5.5c7.5,5.5,10,12.7,7.5,21.5c-6,8.7-12,17.3-18,26
		c-18.3,37.2-16.3,73.2,6,108c6.9,8.2,13.6,16.5,20,25c3.2,6,3.2,12,0,18C276.8,231.4,269.7,234.1,260.8,232.1z"/>
</g>
<g>
	<path class="st1" d="M271.8,60.1c23.3-0.2,46.7,0,70,0.5c4.1,2.6,5,6.1,2.5,10.5c-0.8,0.6-1.6,1.1-2.5,1.5c-23.3,0.7-46.7,0.7-70,0
		C266.6,68.4,266.6,64.3,271.8,60.1z"/>
</g>
<g>
	<path class="st0" d="M351.8,23.1c8.9-1.9,16.1,0.7,21.5,8c45.6,62.3,44.6,123.7-3,184c-20.3,19.7-41.8,37.9-64.5,54.5
		c-3.9,4.2-8.1,8.1-12.5,11.5c-13.1,12.9-20.3,28.6-21.5,47c0.8,14,5.3,26.7,13.5,38c2.5,17.2-5,25-22.5,23.5
		c-5.7-2.4-10.2-6.2-13.5-11.5c-22.5-44.9-16.7-85.5,17.5-122c18.9-17.4,38.6-33.9,59-49.5c8.2-7.5,16-15.3,23.5-23.5
		c30.9-45.7,28.2-89.3-8-131C335.2,38.9,338.7,29.2,351.8,23.1z"/>
</g>
<g>
	<path class="st2" d="M256.8,95.1c32.7-0.2,65.3,0,98,0.5c5.8,2.1,7.3,5.9,4.5,11.5c-0.8,0.6-1.6,1.1-2.5,1.5
		c-33.3,0.7-66.7,0.7-100,0c-4.1-2.5-5.1-6-3-10.5C255.1,97.3,256.1,96.3,256.8,95.1z"/>
</g>
<g>
	<path class="st3" d="M256.8,130.1c33.3-0.2,66.7,0,100,0.5c4.2,3,5,6.8,2.5,11.5c-0.8,0.6-1.6,1.1-2.5,1.5
		c-33.3,0.7-66.7,0.7-100,0C249,139,249,134.5,256.8,130.1z"/>
</g>
<g>
	<path class="st4" d="M268.8,165.1c25.7-0.2,51.3,0,77,0.5c5.4,4.3,5.1,8.3-1,12c-24.7,0.7-49.3,0.7-74,0c-4.6-2.1-6.1-5.6-4.5-10.5
		C267.3,166.5,268.2,165.9,268.8,165.1z"/>
</g>
<g>
	<path class="st5" d="M302.8,191.1c6.8-1.3,10.8,1.4,12,8c-0.5,5.5-3.5,8.1-9,8c-6.5-0.9-9-4.6-7.5-11
		C299.7,194.2,301.2,192.6,302.8,191.1z"/>
</g>
<g>
	<path class="st0" d="M229.8,261.1c5,9.7,3.4,18.2-5,25.5c-19.7,4.1-39.4,8.4-59,13c-6,2.4-12,4.7-18,7c-4,3-4,6,0,9
		c20.3,7.4,41,12.4,62,15c5.5,2.2,9.4,6,11.5,11.5c1.5,15.9-5.7,23.4-21.5,22.5c-21.6-3.7-43-8.5-64-14.5c-0.2,12.7,0,25.3,0.5,38
		c3.4,59.5,27.9,107.8,73.5,145c0.1,0.5,0.4,0.9,1,1c1-6.6,1.3-13.3,1-20c1-12.9,4.2-25.2,9.5-37c12.3-24.3,29.1-45.2,50.5-62.5
		c19.1-15.1,37.6-30.9,55.5-47.5c6.8-8.1,11.2-17.4,13-28c3.3-18.2-1-34.2-13-48c-3.2-8.5-1.4-15.6,5.5-21.5
		c12.5-6.6,22.7-4.1,30.5,7.5c2.3,4,4.7,8,7,12c10,26,10,52,0,78c-9.9,18.6-23.1,34.4-39.5,47.5c-23.1,17.4-44.6,36.6-64.5,57.5
		c-20.2,26.4-24.2,55.1-12,86c5.2,9.9,11.2,19.2,18,28c1.5,3.4,2.7,6.9,3.5,10.5c21,0.5,42,0.7,63,0.5c-0.5-4.8,0.6-9.1,3.5-13
		c35.6-45.5,32.3-87.8-10-127c-5.2-7.1-5.6-14.5-1-22c9.1-9.5,18.9-10.3,29.5-2.5c28.8,27.5,43.4,60.8,44,100
		c54.6-48.4,78.6-109.2,72-182.5c-22,7.2-44.5,12.2-67.5,15c-6.4,0-11.4-2.7-15-8c-4.7-10.7-2.2-19.2,7.5-25.5
		c21.5-3.4,42.5-8.8,63-16c4.3-1.8,5-4.5,2-8c-5.3-2.5-10.6-4.9-16-7c-19.8-5.1-39.4-9.5-59-13c-5.7-2.3-9.2-6.5-10.5-12.5
		c-1.6-10.8,2.9-17.6,13.5-20.5c34.5,1.8,67.1,10.5,98,26c9.2,4.9,16.1,12.1,20.5,21.5c0.5,14.3,0.7,28.7,0.5,43
		c16.9-0.6,32.6,3.6,47,12.5c28.1,22,37.6,50.5,28.5,85.5c-11,33.3-33.8,52.5-68.5,57.5c-14,0.2-28,0.7-42,1.5
		c-21.2,36-50.5,63.2-88,81.5c-2.9,3.4-5.5,6.9-8,10.5c7.3,1.2,14.6,1.3,22,0.5c22.4-1.9,44.8-4.6,67-8c20.1-3.5,39.8-8.5,59-15
		c1.3-1,1.3-2,0-3c-15.5-6.9-31.5-12.3-48-16c7.2-8.3,13.1-17.5,17.5-27.5c0.8-1.3,2-2,3.5-2c22.3,4.4,44,10.9,65,19.5
		c10.4,5,18.9,12.2,25.5,21.5c0.7,3.7,0.7,7.3,0,11c-2.7,5.7-6.5,10.5-11.5,14.5c-14.4,8.5-29.7,14.8-46,19
		c-59.4,13.4-119.4,20.8-180,22c-42.3,0.8-84.7,0.4-127-1c-18.6-0.7-37.1-2.6-55.5-5.5c-34.1-2.6-68-8.1-101.5-16.5
		c-12.5-3.5-24.5-8.2-36-14c-23.6-14.8-23.9-30.2-1-46c24.2-11.9,49.6-19.7,76-23.5c5.3,10.5,12,20,20,28.5
		c-14.1,3.7-28.1,7.7-42,12c-2.2,1.6-4.5,2.9-7,4c-1.2,0.9-1.2,1.7,0,2.5c6.8,3.1,13.8,5.6,21,7.5c42.1,9.5,84.8,14.8,128,16
		c-2.2-4-4.8-7.7-8-11c-17.7-8.7-34-19.4-49-32c-43.2-40.6-68.2-90.5-75-149.5c-0.2-33.3,0-66.7,0.5-100c4.4-9,10.9-16.2,19.5-21.5
		c30.8-14.4,63.1-23.3,97-26.5C222.2,254.6,226.6,257,229.8,261.1z"/>
</g>
<g>
	<path class="st6" d="M273.8,560.1c22-0.2,44,0,66,0.5c5.1,2.5,6.3,6.3,3.5,11.5c-0.8,0.6-1.6,1.1-2.5,1.5c-22.7,0.7-45.3,0.7-68,0
		c-4.5-2.1-5.6-5.2-3.5-9.5C270.7,562.5,272.2,561.2,273.8,560.1z"/>
</g>
<g>
	<path class="st7" d="M257.8,527.1c33-0.2,66,0,99,0.5c4.1,4.6,3.8,9-1,13c-32,0.7-64,0.7-96,0C254.1,536.9,253.4,532.4,257.8,527.1
		z"/>
</g>
<g>
	<path class="st8" d="M211.8,514.1c0.3,6.7,0,13.4-1,20c-0.6-0.1-0.9-0.5-1-1C210.5,526.8,211.2,520.4,211.8,514.1z"/>
</g>
<g>
	<path class="st9" d="M260.8,494.1c30.7-0.2,61.3,0,92,0.5c4.9,2.7,6.1,6.5,3.5,11.5c-0.8,0.6-1.6,1.1-2.5,1.5c-31,0.7-62,0.7-93,0
		C255.7,503.2,255.7,498.7,260.8,494.1z"/>
</g>
<g>
	<path class="st10" d="M499.8,460.1c0,1,0,2,0,3c6.3,0,12.7,0,19,0c-6.8,1.3-13.8,1.3-21,0C498.3,461.9,498.9,460.9,499.8,460.1z"/>
</g>
<g>
	<path class="st11" d="M285.8,461.1c14-0.2,28,0,42,0.5c7.1,3.4,7.8,7.8,2,13c-14.7,0.7-29.3,0.7-44,0c-3.9-2.6-4.9-6.1-3-10.5
		C284.1,463.3,285.1,462.3,285.8,461.1z"/>
</g>
<g>
	<path class="st12" d="M518.8,463.1c-6.3,0-12.7,0-19,0c0-1,0-2,0-3c9.8-25.1,14.4-51.1,14-78c18.5-0.8,31.7,7.2,39.5,24
		c5.6,22.3-1.3,39.8-20.5,52.5C528.4,461,523.8,462.5,518.8,463.1z"/>
</g>
<g>
	<path class="st13" d="M288.8,345.1c11.3-0.2,22.7,0,34,0.5c7.1,3.2,7.7,7.6,2,13c-11.7,0.7-23.3,0.7-35,0
		C283.6,354.7,283.2,350.2,288.8,345.1z"/>
</g>
<g>
	<path class="st14" d="M284.8,312.1c14.7-0.2,29.3,0,44,0.5c6.2,3.8,6.5,8.2,1,13c-15,0.7-30,0.7-45,0c-2.6-1.1-3.9-3.1-4-6
		C281.3,316.6,282.6,314.1,284.8,312.1z"/>
</g>
<g>
	<path class="st15" d="M302.8,281.1c3.8-0.4,7.3,0.2,10.5,2c3.5,7.4,1.3,12.1-6.5,14c-6.8-1.2-9.3-5.2-7.5-12
		C300,283.3,301.2,281.9,302.8,281.1z"/>
</g>
<g>
	<path class="st0" d="M96.8,631.1c0.6-0.6,1.4-1,2.5-1c84.9,15.1,170.8,20.9,257.5,17.5c53.5-2.3,106.5-8,159-17
		c-39.1,28.4-82.8,45.4-131,51c-64.7,6.3-129,4.3-193-6C157.7,665.9,126,651,96.8,631.1z"/>
</g>

</svg>
