<?xml version="1.0" encoding="utf-8"?>
<!-- Generator: Adobe Illustrator 24.1.0, SVG Export Plug-In . SVG Version: 6.00 Build 0)  -->
<svg version="1.1" id="Layer_1" xmlns="http://www.w3.org/2000/svg" xmlns:xlink="http://www.w3.org/1999/xlink" x="0px" y="0px"
	 viewBox="0 0 3038 663.5" style="enable-background:new 0 0 3038 663.5;" xml:space="preserve">
<style type="text/css">
	.st0{fill-rule:evenodd;clip-rule:evenodd;fill:#081419;}
	.st1{fill-rule:evenodd;clip-rule:evenodd;fill:#08151B;}
	.st2{fill-rule:evenodd;clip-rule:evenodd;fill:#0B161B;}
	.st3{fill-rule:evenodd;clip-rule:evenodd;fill:#4B5457;}
	.st4{fill-rule:evenodd;clip-rule:evenodd;fill:#0F1B1F;}
	.st5{fill-rule:evenodd;clip-rule:evenodd;fill:#131C1F;}
	.st6{fill-rule:evenodd;clip-rule:evenodd;fill:#061419;}
	.st7{fill-rule:evenodd;clip-rule:evenodd;fill:#B5BBBF;}
	.st8{fill-rule:evenodd;clip-rule:evenodd;fill:#F9FAFA;}
	.st9{fill-rule:evenodd;clip-rule:evenodd;fill:#838A8E;}
	.st10{fill-rule:evenodd;clip-rule:evenodd;fill:#BDC3C6;}
	.st11{fill-rule:evenodd;clip-rule:evenodd;fill:#FEFEFE;}
	.st12{fill-rule:evenodd;clip-rule:evenodd;fill:#455052;}
	.st13{fill-rule:evenodd;clip-rule:evenodd;fill:#FDFDFD;}
	.st14{fill-rule:evenodd;clip-rule:evenodd;fill:#AEB1B3;}
	.st15{fill-rule:evenodd;clip-rule:evenodd;fill:#CDD3D6;}
	.st16{fill-rule:evenodd;clip-rule:evenodd;fill:#273538;}
	.st17{fill-rule:evenodd;clip-rule:evenodd;fill:#FBFCFC;}
	.st18{fill-rule:evenodd;clip-rule:evenodd;fill:#C9CDCF;}
	.st19{fill-rule:evenodd;clip-rule:evenodd;fill:#DBE0E1;}
	.st20{fill-rule:evenodd;clip-rule:evenodd;fill:#324043;}
	.st21{fill-rule:evenodd;clip-rule:evenodd;fill:#2D3A3E;}
	.st22{fill-rule:evenodd;clip-rule:evenodd;fill:#A1A8AB;}
	.st23{fill-rule:evenodd;clip-rule:evenodd;fill:#111B1E;}
	.st24{fill-rule:evenodd;clip-rule:evenodd;fill:#131C22;}
	.st25{fill-rule:evenodd;clip-rule:evenodd;fill:#485257;}
	.st26{fill-rule:evenodd;clip-rule:evenodd;fill:#FCFBFC;}
	.st27{fill-rule:evenodd;clip-rule:evenodd;fill:#767F82;}
	.st28{fill-rule:evenodd;clip-rule:evenodd;fill:#FCFCFD;}
	.st29{fill-rule:evenodd;clip-rule:evenodd;fill:#FCFDFD;}
	.st30{fill-rule:evenodd;clip-rule:evenodd;fill:#464C51;}
	.st31{fill-rule:evenodd;clip-rule:evenodd;fill:#031317;}
	.st32{fill-rule:evenodd;clip-rule:evenodd;fill:#061418;}
	.st33{fill-rule:evenodd;clip-rule:evenodd;fill:#091418;}
	.st34{fill-rule:evenodd;clip-rule:evenodd;fill:#0C191D;}
	.st35{fill-rule:evenodd;clip-rule:evenodd;fill:#031216;}
	.st36{fill-rule:evenodd;clip-rule:evenodd;fill:#0F171B;}
	.st37{fill-rule:evenodd;clip-rule:evenodd;fill:#041317;}
	.st38{fill-rule:evenodd;clip-rule:evenodd;fill:#06141B;}
	.st39{fill-rule:evenodd;clip-rule:evenodd;fill:#061417;}
	.st40{fill-rule:evenodd;clip-rule:evenodd;fill:#0B171B;}
	.st41{fill-rule:evenodd;clip-rule:evenodd;fill:#0B161D;}
	.st42{fill-rule:evenodd;clip-rule:evenodd;fill:#0A161A;}
	.st43{fill-rule:evenodd;clip-rule:evenodd;fill:#0F1B1D;}
	.st44{fill-rule:evenodd;clip-rule:evenodd;fill:#0F1A1B;}
	.st45{fill-rule:evenodd;clip-rule:evenodd;fill:#051316;}
	.st46{fill-rule:evenodd;clip-rule:evenodd;fill:#0A181C;}
	.st47{fill-rule:evenodd;clip-rule:evenodd;fill:#051418;}
	.st48{fill-rule:evenodd;clip-rule:evenodd;fill:#09141A;}
	.st49{fill-rule:evenodd;clip-rule:evenodd;fill:#0A181E;}
	.st50{fill-rule:evenodd;clip-rule:evenodd;fill:#09151A;}
	.st51{fill-rule:evenodd;clip-rule:evenodd;fill:#0A1519;}
	.st52{fill-rule:evenodd;clip-rule:evenodd;fill:#0C1619;}
	.st53{fill-rule:evenodd;clip-rule:evenodd;fill:#041316;}
	.st54{fill-rule:evenodd;clip-rule:evenodd;fill:#101B21;}
	.st55{fill-rule:evenodd;clip-rule:evenodd;fill:#0A161B;}
	.st56{fill-rule:evenodd;clip-rule:evenodd;fill:#0F1B20;}
	.st57{fill-rule:evenodd;clip-rule:evenodd;fill:#061218;}
	.st58{fill-rule:evenodd;clip-rule:evenodd;fill:#102023;}
	.st59{fill-rule:evenodd;clip-rule:evenodd;fill:#071518;}
	.st60{fill-rule:evenodd;clip-rule:evenodd;fill:#0A161D;}
	.st61{fill-rule:evenodd;clip-rule:evenodd;fill:#0B1618;}
	.st62{fill-rule:evenodd;clip-rule:evenodd;fill:#111C21;}
	.st63{fill-rule:evenodd;clip-rule:evenodd;fill:#252E30;}
	.st64{fill-rule:evenodd;clip-rule:evenodd;fill:#051317;}
	.st65{fill-rule:evenodd;clip-rule:evenodd;fill:#091419;}
	.st66{fill-rule:evenodd;clip-rule:evenodd;fill:#0D191E;}
	.st67{fill-rule:evenodd;clip-rule:evenodd;fill:#041216;}
	.st68{fill-rule:evenodd;clip-rule:evenodd;fill:#0D1720;}
	.st69{fill-rule:evenodd;clip-rule:evenodd;fill:#051419;}
	.st70{fill-rule:evenodd;clip-rule:evenodd;fill:#808A8F;}
	.st71{fill-rule:evenodd;clip-rule:evenodd;fill:#F1F3F3;}
	.st72{fill-rule:evenodd;clip-rule:evenodd;fill:#7A8184;}
	.st73{fill-rule:evenodd;clip-rule:evenodd;fill:#9CA3A5;}
	.st74{fill-rule:evenodd;clip-rule:evenodd;fill:#FAFBFB;}
	.st75{fill-rule:evenodd;clip-rule:evenodd;fill:#F6F7F7;}
	.st76{fill-rule:evenodd;clip-rule:evenodd;fill:#152326;}
	.st77{fill-rule:evenodd;clip-rule:evenodd;fill:#D3DBDD;}
	.st78{fill-rule:evenodd;clip-rule:evenodd;fill:#0F191E;}
	.st79{fill-rule:evenodd;clip-rule:evenodd;fill:#F8FAFA;}
	.st80{fill-rule:evenodd;clip-rule:evenodd;fill:#07151D;}
	.st81{fill-rule:evenodd;clip-rule:evenodd;fill:#1E2526;}
	.st82{fill-rule:evenodd;clip-rule:evenodd;fill:#0F1A1E;}
	.st83{fill-rule:evenodd;clip-rule:evenodd;fill:#011115;}
	.st84{fill-rule:evenodd;clip-rule:evenodd;fill:#121D1F;}
	.st85{fill-rule:evenodd;clip-rule:evenodd;fill:#09161C;}
	.st86{fill-rule:evenodd;clip-rule:evenodd;fill:#0A1C23;}
	.st87{fill-rule:evenodd;clip-rule:evenodd;fill:#08161B;}
	.st88{fill-rule:evenodd;clip-rule:evenodd;fill:#586166;}
	.st89{fill-rule:evenodd;clip-rule:evenodd;fill:#5C6568;}
	.st90{fill-rule:evenodd;clip-rule:evenodd;fill:#0E181D;}
	.st91{fill-rule:evenodd;clip-rule:evenodd;fill:#4B565B;}
	.st92{fill-rule:evenodd;clip-rule:evenodd;fill:#0A161C;}
	.st93{fill-rule:evenodd;clip-rule:evenodd;fill:#08151A;}
	.st94{fill-rule:evenodd;clip-rule:evenodd;fill:#09161D;}
	.st95{fill-rule:evenodd;clip-rule:evenodd;fill:#0A1217;}
	.st96{font-family:'ArialMT';}
	.st97{font-size:400px;}
</style>
<g>
	<g>
		<path class="st0" d="M118.7,324.8c8.2-0.8,11.9,2.8,11.2,10.8c-1.5,3.2-4,4.7-7.6,4.3c-6.2-0.5-8.7-3.9-7.6-10.1
			C115.4,327.6,116.7,325.9,118.7,324.8z"/>
	</g>
	<g>
		<path class="st1" d="M66,324.8c9.2-0.6,12.6,3.5,10.5,12.3c-4.6,4.8-9.2,4.8-13.7,0C60.6,332.1,61.7,328,66,324.8z"/>
	</g>
	<g>
		<path class="st2" d="M94.1,326.2c6.4,0.3,8.7,3.4,6.9,9.4c-3.8,4.1-7.2,3.9-10.1-0.7C89.8,331.1,90.9,328.2,94.1,326.2z"/>
	</g>
	<g>
		<path class="st3" d="M63.8,369.5c19.7,0,39.5,0,59.2,0c0.2,3,0,5.9-0.7,8.7c0-2.6,0-5.3,0-7.9C102.7,370.5,83.2,370.2,63.8,369.5z
			"/>
	</g>
	<g>
		<path class="st4" d="M133.1,426.6c5.1,0.2,6.4,2.5,3.6,6.9c-4.3,0.7-5.9-1.1-4.7-5.4C132.6,427.6,132.9,427.1,133.1,426.6z"/>
	</g>
	<g>
		<path class="st5" d="M60.2,430.9c4.5,0.3,5.8,2.4,3.6,6.1C57.8,437.7,56.6,435.6,60.2,430.9z"/>
	</g>
	<g>
		<path class="st6" d="M83.3,465.5c-0.7,0.2-1.2,0.7-1.4,1.4c11,1,22,1,33.2,0c-0.1-0.4-0.3-0.7-0.7-0.7c-0.2,0-0.5,0-0.7,0
			c-2.6-4.2-6-7.4-10.1-9.7c1.1,0.8,1.6,1.9,1.4,3.2c-2.7,0.1-5.3,0-7.9-0.4c6.4-6,12.9-11.9,19.5-17.7c23.8,21.4,30.9,47.4,21.3,78
			c-5.3,11.1-12.3,20.9-20.9,29.6c-12.8,10.7-24.4,22.5-35,35.4c-0.4,0-0.6,0.3-0.7,0.7c10,1,19.8,1,29.6,0c1.3,0.2,2.5,0,3.6-0.7
			c-2.6-3-5.4-5.9-8.3-8.7c-0.2,1.1-0.8,2-1.8,2.5c-2.4,0.6-4.8,0.5-7.2-0.4c6.7-5.9,13.3-11.9,19.8-18
			c12.3,11.8,20.2,25.9,23.8,42.6c1.7,13.2-0.4,25.7-6.5,37.5c-3.9,5.1-8.8,6.4-14.8,4c-1-0.9-1.7-2-2.2-3.2c0-1.4,0-2.9,0-4.3
			c-13.1-0.2-26.1,0-39,0.7c-0.5,5.1-3.4,7.8-8.7,7.9c-4.5-0.1-7.5-2.3-9-6.5c-10.2-25.7-6.4-49,11.5-70
			c11.6-12,23.5-23.5,35.7-34.6c0.4,0,0.6-0.3,0.7-0.7c-6.7-0.8-13.5-1-20.2-0.4c0.4,0.5,0.9,0.9,1.4,1.1c1,1,2,2,3.2,2.9
			c0.5,0.5,0.5,1,0,1.4c-4.3,3.9-8.7,7.7-13,11.5c-12.2-11.5-20.4-25.4-24.5-41.9c-2.9-16.5,0-31.9,8.7-46.2
			c2.4-3.4,4.8-6.7,7.2-10.1c11.4-12.4,23.3-24.2,35.7-35.4c0.4,0,0.6-0.3,0.7-0.7c-6.7-1-13.5-1-20.2,0c0.1,0.4,0.3,0.7,0.7,0.7
			c1.8,1.2,3.1,2.6,4,4.3c-4.5,3.8-8.9,7.9-13,12.3c-11.7-11.4-19.4-25.2-23.1-41.1c-0.6-3.9-0.4-7.8,0.7-11.5
			c0.7-0.9,1.5-1.5,2.5-1.8c20.9-0.4,41.9-0.5,62.8-0.4c0.7-2.7,1-5.6,0.7-8.7c-19.7,0-39.5,0-59.2,0c-5.3-1.2-7.9-4.6-7.9-10.1
			c0.1-5.2,2.5-8.9,7.2-11.2c22.4-0.5,44.8-0.5,67.1,0c2.5,1,4.5,2.6,6.1,4.7c2,4.1,3.4,8.5,4.3,13c2,15.8-0.6,30.7-7.9,44.8
			c-3.9,5.7-8,11.2-12.3,16.6c-9.6,9.1-19.2,18.3-28.9,27.4C88.5,458.1,85.7,461.7,83.3,465.5z"/>
	</g>
	<g>
		<path class="st7" d="M107.1,416.4c-6.3-1-12.5-1-18.8,0c-0.4,0-0.6-0.3-0.7-0.7c6.7-1,13.5-1,20.2,0
			C107.8,416.2,107.5,416.4,107.1,416.4z"/>
	</g>
	<g>
		<path class="st8" d="M118,400.6c-1.4,2.7-3.1,5.2-5.1,7.6c-10.1,0.5-20.2,0.5-30.3,0c-1.9-2-3.3-4.3-4.3-6.9
			C91.4,400.6,104.6,400.3,118,400.6z"/>
	</g>
	<g>
		<path class="st9" d="M118,400.6c-13.4-0.2-26.6,0-39.7,0.7c-0.4,0-0.6-0.3-0.7-0.7C91.1,399.6,104.6,399.6,118,400.6z"/>
	</g>
	<g>
		<path class="st10" d="M74.7,391.2c15.2,1.4,30.6,1.9,46.2,1.4c-15.3,0.7-30.7,1-46.2,0.7C74.7,392.6,74.7,391.9,74.7,391.2z"/>
	</g>
	<g>
		<path class="st11" d="M120.9,392.6c-15.6,0.5-31,0-46.2-1.4c-0.2-1.9-0.5-3.8-0.7-5.8c16.1-0.1,32.2,0,48.4,0.4
			C121.7,388,121.2,390.3,120.9,392.6z"/>
	</g>
	<g>
		<path class="st12" d="M120.9,361.6c0.7,0.5,0.9,1.2,0.7,2.2c-16,0.2-31.9,0-47.6-0.7c0.2,0,0.5,0,0.7,0
			C90.3,363.5,105.7,363,120.9,361.6z"/>
	</g>
	<g>
		<path class="st13" d="M118,355.8c1.3,1.7,2.3,3.6,2.9,5.8c-15.1,1.4-30.5,1.9-46.2,1.4c0-2.4,0-4.8,0-7.2
			C89.1,355.8,103.5,355.8,118,355.8z"/>
	</g>
	<g>
		<path class="st14" d="M118,355.8c-14.4,0-28.9,0-43.3,0c0,2.4,0,4.8,0,7.2c-0.2,0-0.5,0-0.7,0c0-2.6,0-5.3,0-7.9
			C88.7,354.9,103.4,355.1,118,355.8z"/>
	</g>
	<g>
		<path class="st15" d="M83.3,465.5c10,0.7,20.1,1,30.3,0.7c0.2,0,0.5,0,0.7,0c-10.7,0.7-21.5,1-32.5,0.7
			C82.1,466.3,82.6,465.8,83.3,465.5z"/>
	</g>
	<g>
		<path class="st16" d="M114.4,466.3c0.4,0,0.6,0.3,0.7,0.7c-11.2,1-22.3,1-33.2,0C92.8,467.2,103.7,467,114.4,466.3z"/>
	</g>
	<g>
		<path class="st17" d="M77.5,474.2c14-0.2,27.9,0,41.9,0.7c0.9,2.1,1.7,4.3,2.2,6.5c-15.6,0.1-31.3,0-46.9-0.4
			C75.7,478.8,76.7,476.5,77.5,474.2z"/>
	</g>
	<g>
		<path class="st18" d="M73.2,489.3c16.7-0.7,33.6-1,50.5-0.7c0,2.6,0,5.3,0,7.9c-17,0.2-33.8,0-50.5-0.7c16.6,0,33.2,0,49.8,0
			c0-2.2,0-4.3,0-6.5C106.4,489.3,89.8,489.3,73.2,489.3z"/>
	</g>
	<g>
		<path class="st11" d="M73.2,489.3c16.6,0,33.2,0,49.8,0c0,2.2,0,4.3,0,6.5c-16.6,0-33.2,0-49.8,0
			C73.2,493.7,73.2,491.5,73.2,489.3z"/>
	</g>
	<g>
		<path class="st19" d="M122.3,505.2c-7.8-1-15.9-1.4-24.2-1.4c-8.2,0-16.2,0.2-24.2,0.7c-0.4,0-0.6-0.3-0.7-0.7
			c16.6-0.7,33.2-1,49.8-0.7C123.2,504,123,504.7,122.3,505.2z"/>
	</g>
	<g>
		<path class="st11" d="M122.3,505.2c0.2,1.7-0.1,3.4-0.7,5.1c-15.4,0.8-30.8,1-46.2,0.4c-0.7-2-1.2-4-1.4-6.1
			c7.9-0.5,16-0.7,24.2-0.7C106.4,503.8,114.5,504.3,122.3,505.2z"/>
	</g>
	<g>
		<path class="st20" d="M118.7,518.9c-13.5-1-26.9-1-40.4,0c-0.4,0-0.6-0.3-0.7-0.7c14-1,27.9-1,41.9,0
			C119.3,518.7,119.1,518.9,118.7,518.9z"/>
	</g>
	<g>
		<path class="st8" d="M78.3,518.9c13.5-1,26.9-1,40.4,0c-1.4,2.2-2.9,4.3-4.3,6.5c-10.3,0.7-20.6,0.9-31,0.7
			C81.6,523.7,79.9,521.3,78.3,518.9z"/>
	</g>
	<g>
		<path class="st21" d="M114.4,525.4c0.1,0.8,0,1.5-0.4,2.2c-10.3-0.5-20.5-1-30.7-1.4C93.7,526.4,104.1,526.1,114.4,525.4z"/>
	</g>
	<g>
		<path class="st22" d="M107.9,534.1c-6-1-12-1-18,0c-0.6-0.2-1.1-0.6-1.4-1.1c6.7-0.6,13.5-0.5,20.2,0.4
			C108.5,533.8,108.3,534.1,107.9,534.1z"/>
	</g>
	<g>
		<path class="st23" d="M60.2,552.1c4-1,5.8,0.5,5.4,4.3c-1.3,1.4-2.9,1.7-4.7,1.1C59.3,555.9,59.1,554.1,60.2,552.1z"/>
	</g>
	<g>
		<path class="st24" d="M131.7,550.7c4.9-0.2,6.1,1.7,3.6,5.8C130.2,557.2,129,555.2,131.7,550.7z"/>
	</g>
	<g>
		<path class="st25" d="M81.9,584.6c9.5,0.7,19.1,1,28.9,0.7c-9.7,1-19.6,1-29.6,0C81.2,584.9,81.5,584.7,81.9,584.6z"/>
	</g>
	<g>
		<path class="st26" d="M120.9,599.8c-15.3,0.7-30.7,1-46.2,0.7c0.7-2.7,1.9-5.3,3.6-7.6c13.5-0.6,27-0.5,40.4,0.4
			C119.8,595.3,120.6,597.5,120.9,599.8z"/>
	</g>
	<g>
		<path class="st27" d="M120.9,599.8c0.4,0,0.6,0.3,0.7,0.7c-15.8,1-31.4,1-46.9,0C90.2,600.7,105.6,600.5,120.9,599.8z"/>
	</g>
	<g>
		<path class="st28" d="M73.2,607.7c16.4,0,32.7,0,49.1,0c0,2.4,0,4.8,0,7.2c-16.4,0-32.7,0-49.1,0
			C73.2,612.5,73.2,610.1,73.2,607.7z"/>
	</g>
	<g>
		<path class="st29" d="M74.7,622.2c15.6,0,31.3,0,46.9,0c-0.4,2.5-1.1,4.9-2.2,7.2c-14.4,0.7-28.9,1-43.3,0.7
			C75.7,627.4,75.3,624.8,74.7,622.2z"/>
	</g>
	<g>
		<path class="st30" d="M78.3,637.3c12.9-0.7,25.9-1,39-0.7c0,1.4,0,2.9,0,4.3c-0.7-1-0.9-2.2-0.7-3.6
			C103.8,637.3,91,637.3,78.3,637.3z"/>
	</g>
</g>
<g>
	<g>
		<path class="st31" d="M2663.7,36.8c10.7-0.7,20.8,1.3,30.3,6.1c2.3,1.6,2.7,3.4,1.1,5.6c-29.8,0.6-44.2,15.7-43.2,45.3
			c2.4,11.3,7.6,21,15.7,29.1c11.5,10.3,23.3,20.2,35.4,29.6c40,34.8,47.6,75.6,23,122.4c-4.1,5.6-8.2,11.2-12.4,16.8
			c-13.1,12.3-25.5,25.4-37.1,39.1c-3.7,5.4-7,11-10.1,16.8c-2.1,5.4-3.2,11-3.4,16.8c-1.7,3.9-3.9,4.3-6.7,1.1
			c-4.1-14.5-2.9-28.7,3.4-42.5c8.5-15.9,16.8-31.9,24.7-48.1c7.8-23.5,4.8-45.5-9-66c-13.8-14.1-28-27.9-42.7-41.4
			c-21.4-24.4-28.1-52.4-20.2-83.9C2621.3,58.9,2638.3,43.2,2663.7,36.8z"/>
	</g>
	<g>
		<path class="st32" d="M2737.8,42.4c16.8,0.9,21.8,9.1,15.2,24.6c-5.6,4.7-11.8,5.6-18.5,2.8c-7.2-6.2-8.5-13.4-3.9-21.8
			C2732.7,45.7,2735.2,43.8,2737.8,42.4z"/>
	</g>
	<g>
		<path class="st33" d="M2577.2,48c8.6-0.9,12.5,2.8,11.8,11.2c-4.4,6.4-9.6,7.2-15.7,2.2C2570.5,55.6,2571.8,51.2,2577.2,48z"/>
	</g>
	<g>
		<path class="st34" d="M2546.9,68.1c8.3-1.2,11.8,2.1,10.7,10.1c-4.9,7.5-9.7,7.5-14.6,0C2542.4,74.1,2543.7,70.7,2546.9,68.1z"/>
	</g>
	<g>
		<path class="st35" d="M2811.9,72.6c12.8-0.7,24.1,3,33.7,11.2c-2.6,2.4-5.5,4.7-8.4,6.7c-4.8,7.2-9.5,14.4-14,21.8
			c-6.2,3.6-12.5,7-19.1,10.1c-1.7,1.7-3.4,3.4-5.1,5c-4.1,10.4-8.2,20.9-12.4,31.3c-6.4,6.6-14.1,11.1-23,13.4
			c-9.4-12.3-12.5-26.1-9.5-41.4C2762.4,100.3,2781.7,80.9,2811.9,72.6z"/>
	</g>
	<g>
		<path class="st36" d="M2685,86c10.9,1.4,12.7,6,5.6,14c-7.7,1.3-10.9-1.9-9.5-9.5C2681.9,88.4,2683.2,86.9,2685,86z"/>
	</g>
	<g>
		<path class="st32" d="M2495.3,93.8c23.6-1.6,42.5,7,56.7,25.7c9.5,14.3,9.7,28.6,0.6,43c-0.4,0.2-0.7,0.4-1.1,0.6
			c-2-10.1-6.5-18.8-13.5-26.3c-9.2-4.7-18.9-8.1-29.2-10.1c-10.7-5.6-15.9-14.6-15.7-26.8C2493.2,97.6,2494,95.5,2495.3,93.8z"/>
	</g>
	<g>
		<path class="st37" d="M2852.4,90.5c1.1-0.1,2.1,0.3,2.8,1.1c7.9,13.8,9.4,28.4,4.5,43.6c-8,25.5-24.7,42.4-50,50.9
			c-13.2,3.3-25.5,1.5-37.1-5.6c8.6-4.2,16.2-9.6,23-16.2c4.8-7.1,7.5-14.9,7.9-23.5c1.2-2.8,2.7-5.4,4.5-7.8
			c6.5-4.6,13.4-8.5,20.8-11.7c1.7-1.7,3.4-3.4,5.1-5C2838.4,106.3,2844.6,97.7,2852.4,90.5z"/>
	</g>
	<g>
		<path class="st38" d="M2429,100.5c12.4-1.7,17.8,3.6,16.3,15.7c-3,7.3-8.4,9.8-16.3,7.3C2420.1,115.7,2420.1,108.1,2429,100.5z"/>
	</g>
	<g>
		<path class="st39" d="M2482.9,101.6c1.2,0.1,2,0.9,2.2,2.2c0.9,15.8,8.8,26.5,23.6,31.9c22.6,0.4,34.3,11.7,34.8,34.1
			c-29.2,5-51.1-5.4-65.7-31.3C2471.3,124.9,2473,112.6,2482.9,101.6z"/>
	</g>
	<g>
		<path class="st40" d="M2576.1,110.6c8.4-0.8,10.7,2.4,6.7,9.5C2574.2,121.3,2571.9,118.1,2576.1,110.6z"/>
	</g>
	<g>
		<path class="st41" d="M2716.5,109.5c9.5,1,11.4,5.3,5.6,12.9c-7.1,0.7-9.9-2.4-8.4-9.5C2714.9,111.8,2715.8,110.7,2716.5,109.5z"
			/>
	</g>
	<g>
		<path class="st42" d="M2893.9,135.2c9.3,0.5,11.2,4.5,5.6,11.7c-7.3,1.7-10.1-1.1-8.4-8.4C2892.3,137.6,2893.2,136.4,2893.9,135.2
			z"/>
	</g>
	<g>
		<path class="st43" d="M2451.5,154.2c6-0.6,8.8,2.1,8.4,7.8c-7.6,5.6-11,3.8-10.1-5.6C2450.6,155.8,2451.1,155.1,2451.5,154.2z"/>
	</g>
	<g>
		<path class="st44" d="M2576.1,162c8.1-0.6,9.9,2.6,5.6,9.5c-4.8,1.7-7.4,0-7.9-5C2574.2,164.7,2574.9,163.2,2576.1,162z"/>
	</g>
	<g>
		<path class="st45" d="M2887.2,168.7c19.4-2.1,28.2,6.5,26.4,25.7c-7.1,13.3-17.4,16.5-30.9,9.5
			C2871.2,190.6,2872.7,178.9,2887.2,168.7z"/>
	</g>
	<g>
		<path class="st46" d="M2479.5,185.5c2.5-0.4,4.6,0.4,6.2,2.2c0.4,3.7,0.7,7.5,1.1,11.2c0.6,0.6,1.1,1.1,1.7,1.7
			c7.5,0.4,15,0.7,22.5,1.1c1.2,1.9,1.4,4,0.6,6.1c-8,0.9-16,1.5-24.1,1.7c-0.6,0.6-1.1,1.1-1.7,1.7c-0.4,3-0.7,6-1.1,8.9
			c-2.5,1.6-4.8,1.2-6.7-1.1c-0.2-3.3-0.8-6.4-1.7-9.5c-6-0.4-12-0.7-18-1.1c-2.9-2.5-2.5-4.8,1.1-6.7c5.9-0.2,11.7-0.8,17.4-1.7
			C2476.7,194.9,2477.6,190,2479.5,185.5z"/>
	</g>
	<g>
		<path class="st1" d="M2946.7,191.1c12.4-1.6,17.8,3.6,16.3,15.7c-5.5,8.8-12.2,9.9-20.2,3.4c-2.4-3.4-3.2-7.1-2.2-11.2
			C2942.4,196.1,2944.5,193.5,2946.7,191.1z"/>
	</g>
	<g>
		<path class="st47" d="M2612.1,191.1c4.1-0.2,8.3,0,12.4,0.6c3,2.2,3,4.5,0,6.7c-12.4,3.8-18.2,12.2-17.4,25.2
			c0.7,2.2,1.5,4.5,2.2,6.7c8.8,9.8,18.2,19.1,28.1,28c5.3,6.9,8.2,14.8,8.4,23.5c-0.8,9.2-2.8,18.2-6.2,26.8
			c-5,10.2-10.2,20.3-15.7,30.2c-1.6,2.3-3.4,2.6-5.6,1.1c-0.2-2.4-0.4-4.8-0.6-7.3c1-7.2,1.7-14.5,2.2-21.8
			c0.1-9.9-2.7-18.8-8.4-26.8c-7.5-8.9-15-17.9-22.5-26.8c-12.7-22.9-9.1-42.9,10.7-59.8C2603.7,194.6,2607.8,192.6,2612.1,191.1z"
			/>
	</g>
	<g>
		<path class="st48" d="M2543.6,201.1c9.9,0,14.6,4.8,14,14.5c-3.2,6.3-8.2,8.4-15.2,6.1c-5.3-3.6-7-8.7-5.1-15.1
			C2539.3,204.6,2541.4,202.7,2543.6,201.1z"/>
	</g>
	<g>
		<path class="st33" d="M2772.6,219c11.9,0.1,14.9,5.1,9,15.1c-9.6,3.1-13.9-0.4-12.9-10.6C2770.3,222.2,2771.6,220.7,2772.6,219z"
			/>
	</g>
	<g>
		<path class="st49" d="M2841.1,205.6c2.1-0.2,3.8,0.5,5.1,2.2c0.4,3.4,0.7,6.7,1.1,10.1c0.9,0.9,1.9,1.9,2.8,2.8
			c8.6,0.4,17.2,0.7,25.8,1.1c1.6,2.5,1.2,4.8-1.1,6.7c-8.6,0.4-17.2,0.7-25.8,1.1c-1.9,4.4-2.8,9.1-2.8,14c-2.2,3-4.5,3-6.7,0
			c-0.4-4.1-0.7-8.2-1.1-12.3c-0.6-0.6-1.1-1.1-1.7-1.7c-9-0.4-18-0.7-27-1.1c-2.4-1.9-2.7-4.2-1.1-6.7c9-0.4,18-0.7,27-1.1
			c0.9-0.9,1.9-1.9,2.8-2.8C2838.3,213.5,2839.3,209.4,2841.1,205.6z"/>
	</g>
	<g>
		<path class="st50" d="M2899.5,234.7c11.1-0.3,16.2,4.9,15.2,15.7c-3.5,7.4-9.3,9.8-17.4,7.3
			C2887.7,248.7,2888.5,241.1,2899.5,234.7z"/>
	</g>
	<g>
		<path class="st51" d="M2977,234.7c13.2-0.5,18.2,5.5,15.2,17.9c-4.2,5.2-9.6,6.9-16.3,5C2966.6,249.3,2967,241.7,2977,234.7z"/>
	</g>
	<g>
		<path class="st52" d="M2938.8,239.2c11.4,0.7,14,5.7,7.9,15.1c-9.3,2.3-13.2-1.2-11.8-10.6
			C2936.5,242.3,2937.8,240.8,2938.8,239.2z"/>
	</g>
	<g>
		<path class="st47" d="M2481.8,244.7c22.4-2.1,32.7,8,30.9,30.2c-8,15.2-19.8,19.1-35.4,11.7c-13.7-11-14.8-23.3-3.4-36.9
			C2476.6,248.1,2479.2,246.4,2481.8,244.7z"/>
	</g>
	<g>
		<path class="st53" d="M2791.7,259.3c19.4,0.2,28.2,9.9,26.4,29.1c-7.9,15.5-19.6,19.4-35.4,11.7c-7.9-8.2-9.9-17.7-6.2-28.5
			C2780.3,265.7,2785.4,261.6,2791.7,259.3z"/>
	</g>
	<g>
		<path class="st54" d="M2546.9,269.3c8.2,0.1,10.4,3.7,6.7,10.6C2544.6,280.9,2542.3,277.3,2546.9,269.3z"/>
	</g>
	<g>
		<path class="st55" d="M2892.8,271.6c6.4-0.2,12.7,0,19.1,0.6c5.9,3.9,5.9,8,0,12.3c-6,0.7-12,0.7-18,0
			C2889.8,280.5,2889.4,276.3,2892.8,271.6z"/>
	</g>
	<g>
		<path class="st56" d="M2938.8,270.5c7.5-0.6,11,2.8,10.7,10.1c-5.4,6.2-10.3,5.9-14.6-1.1C2934.7,275.8,2936,272.8,2938.8,270.5z"
			/>
	</g>
	<g>
		<path class="st57" d="M2971.4,271.6c6.4-0.2,12.7,0,19.1,0.6c3.1,2.5,4.1,5.6,2.8,9.5c-1.3,1.6-3,2.5-5.1,2.8
			c-5.6,0.7-11.2,0.7-16.8,0C2967,280.2,2967,275.9,2971.4,271.6z"/>
	</g>
	<g>
		<path class="st58" d="M2852.4,271.6c7.8-0.2,9.7,3,5.6,9.5C2850,281.6,2848.2,278.5,2852.4,271.6z"/>
	</g>
	<g>
		<path class="st59" d="M2562.6,300.7c17.2-0.9,23.7,7,19.7,23.5c-9.9,10.8-19.3,10.4-28.1-1.1
			C2551,313.3,2553.8,305.9,2562.6,300.7z"/>
	</g>
	<g>
		<path class="st60" d="M2840,302.9c2.2-0.3,4.3,0.1,6.2,1.1c0.4,8.6,0.7,17.1,1.1,25.7c0.6,0.6,1.1,1.1,1.7,1.7
			c4.5,0.4,9,0.7,13.5,1.1c3,2.2,3,4.5,0,6.7c-5.2,0.2-10.2,0.8-15.2,1.7c-0.4,8.6-0.7,17.1-1.1,25.7c-2.6,3-5.2,3-7.9,0
			c-0.4-8.6-0.7-17.1-1.1-25.7c-4.2-0.9-8.5-1.5-12.9-1.7c-1.5-2.2-1.5-4.5,0-6.7c3.7-0.4,7.5-0.7,11.2-1.1c0.9-0.9,1.9-1.9,2.8-2.8
			C2838.6,320,2839.2,311.4,2840,302.9z"/>
	</g>
	<g>
		<path class="st23" d="M2511,309.6c9.7-0.1,11.9,3.6,6.7,11.2c-5.7,2.5-9.1,0.6-10.1-5.6C2508.3,313,2509.4,311.2,2511,309.6z"/>
	</g>
	<g>
		<path class="st61" d="M2739,315.2c8.6-1.6,12.5,1.7,11.8,10.1c-3.9,4.9-8.3,5.7-13.5,2.2C2734.7,322.9,2735.2,318.8,2739,315.2z"
			/>
	</g>
	<g>
		<path class="st62" d="M2452.6,317.4c2.5-0.4,4.6,0.4,6.2,2.2c0.2,4.4,0.8,8.7,1.7,12.9c5.9,0.2,11.7,0.8,17.4,1.7
			c0.8,2.7,0.2,5.1-1.7,7.3c-5.6,0.6-11.2,0.7-16.8,0.6c0.2,4.1,0,8.2-0.6,12.3c-2.6,1.5-5.2,1.5-7.9,0c-0.2-4-0.8-7.9-1.7-11.7
			c-5.2-0.4-10.5-0.7-15.7-1.1c-3-2.6-3-5.2,0-7.8c5.5-0.2,11-0.8,16.3-1.7C2449.8,326.9,2450.8,322,2452.6,317.4z"/>
	</g>
	<g>
		<path class="st63" d="M2704.1,354.3c33.5-1.1,67.2-1.5,101.1-1.1c0,12.3,0,24.6,0,36.9c-1.1-11.7-1.5-23.7-1.1-35.8
			C2770.8,354.3,2737.5,354.3,2704.1,354.3z"/>
	</g>
	<g>
		<path class="st64" d="M2597.5,375.6c-26.2,0-52.4,0-78.6,0c-0.4,32.2,0,64.3,1.1,96.2c7.9,59.4,40.4,98.4,97.7,116.8
			c63,12.5,111.5-8.2,145.4-62.1c7.5-14.5,12.3-29.7,14.6-45.8c0.6-34.7,0.7-69.3,0.6-104c-24.7,0.2-49.4,0-74.1-0.6
			c-8-4.4-9.8-10.5-5.6-18.4c1.6-1.6,3.5-2.7,5.6-3.4c33.3,0,66.6,0,99.9,0c-0.4,12.1,0,24.1,1.1,35.8c32.6,1.7,52.3,18.5,59,50.3
			c1.2,33.7-14.4,55.5-46.6,65.4c-6,0.9-12,1.8-18,2.8c-12.5,41.7-37.9,72.6-76.4,92.8c-0.6,0.1-1,0.4-1.1,1.1
			c47.2,1.1,94.3,1.5,141.5,1.1c5.9,3.9,5.9,7.8,0,11.7c-135.1,0.7-270.3,0.7-405.4,0c-4.4-4.2-4.4-8.3,0-12.3
			c40.1-0.4,80.1-0.7,120.2-1.1c-43.9-23.4-71.4-59.3-82.5-107.9c-0.7-6-1.5-11.9-2.2-17.9c-0.6-41-0.7-82-0.6-123
			c34.8-0.2,69.6,0,104.4,0.6c8.5,3.2,10.9,9,7.3,17.3C2602.9,373.6,2600.5,375.1,2597.5,375.6z"/>
	</g>
	<g>
		<path class="st65" d="M2878.2,375.6c15.3,0.4,19.4,7.3,12.4,20.7c-6.7,4.3-12.5,3.4-17.4-2.8
			C2869.8,385.9,2871.4,379.9,2878.2,375.6z"/>
	</g>
	<g>
		<path class="st66" d="M2990.5,380c7.8-0.2,9.7,3,5.6,9.5C2988.2,390.1,2986.3,386.9,2990.5,380z"/>
	</g>
	<g>
		<path class="st67" d="M2657,383.4c15.9-1.5,30.5,2,43.8,10.6c-5.9,20-19,32.3-39.3,36.9c-17.3-1.4-33,2.7-47.2,12.3
			c-10.4,8.7-16.7,19.7-19.1,33c-12.2-18.7-12-37.3,0.6-55.9C2611.5,400.1,2631.9,387.8,2657,383.4z"/>
	</g>
	<g>
		<path class="st68" d="M2462.7,386.7c6.9,0.6,8.4,3.8,4.5,9.5c-5.6,1.5-8-0.6-7.3-6.1C2460.7,388.8,2461.6,387.6,2462.7,386.7z"/>
	</g>
	<g>
		<path class="st69" d="M2928.7,413.6c-0.6,0.1-1,0.4-1.1,1.1c10.1,1.5,20.2,1.5,30.3,0c-0.1-0.7-0.5-1.1-1.1-1.1
			c-1.6-2.1-3.5-4-5.6-5.6c6-6.9,12.6-13.2,19.7-19c24.9,23.9,32,52.2,21.3,85c-2.9,6.9-6.6,13.2-11.2,19
			c-19.8,19.2-39.1,38.9-57.8,59.3c-0.6,0.1-1,0.4-1.1,1.1c11.2,1.1,22.4,1.5,33.7,1.1c2.3,2,3.8,4.6,4.5,7.8
			c-14.2,0.9-28.4,1.5-42.7,1.7c-2.3,3.2-3.8,6.8-4.5,10.6c-0.6,0.1-1,0.4-1.1,1.1c25.8,1.1,51.6,1.5,77.5,1.1c6,3,6,6.1,0,9.5
			c-26.6,0.6-53.2,0.7-79.7,0.6c0,4.5,0,8.9,0,13.4c27-0.2,53.9,0,80.9,0.6c4,2.4,4.4,5.4,1.1,8.9c-33.7,0.7-67.4,0.7-101.1,0
			c-2.1-1.7-3.8-3.8-5.1-6.1c-4.1-20.8-0.3-40.2,11.2-58.1c4.1-5.6,8.2-11.2,12.4-16.8c14-13.2,28.1-26.5,42.1-39.7
			c-7.5-0.7-15-0.7-22.5,0c1.3,1.1,2.5,2.4,3.4,3.9c-6,5.8-12.2,11.4-18.5,16.8c-25.1-24.7-32.2-53.8-21.3-87.2
			c3.6-7.1,7.7-13.8,12.4-20.1c15.4-17,31.7-33,48.9-48.1c-7.8-1.3-15.7-1.5-23.6-0.6c1.3,1.5,2.8,2.8,4.5,3.9
			c-6.1,5.5-12.1,11.3-18,17.3c-0.7,0.7-1.5,0.7-2.2,0c-19.6-18.3-29.1-40.9-28.6-67.6c0.9-3.9,3.4-6.3,7.3-7.3
			c32.9-0.7,65.9-0.7,98.8,0c3.5,0.9,5.9,2.9,7.3,6.1c0.9,22-5.8,41.4-20.2,58.1C2962.2,381,2945.5,397.4,2928.7,413.6z"/>
	</g>
	<g>
		<path class="st8" d="M2916.4,332c17-0.4,33.9,0,50.5,1.1c-1.1,3.6-3,6.7-5.6,9.5c-13.1,0.7-26.2,0.7-39.3,0
			C2920,339.1,2918.1,335.5,2916.4,332z"/>
	</g>
	<g>
		<path class="st70" d="M2916.4,332c17-1.5,34.3-1.5,51.7,0c-0.1,0.7-0.5,1.1-1.1,1.1C2950.3,332,2933.4,331.6,2916.4,332z"/>
	</g>
	<g>
		<path class="st71" d="M2911.9,310.7c20.6-0.7,40.8,0,60.6,2.2c0,3,0,6,0,8.9c-19.8,0.2-39.7,0-59.5-0.6
			C2912,317.9,2911.6,314.4,2911.9,310.7z"/>
	</g>
	<g>
		<path class="st72" d="M2911.9,310.7c20.4-1.1,41-1.5,61.8-1.1c0.3,1.4-0.1,2.6-1.1,3.4C2952.7,310.7,2932.5,310,2911.9,310.7z"/>
	</g>
	<g>
		<path class="st37" d="M2707.5,403.5c3.8,3.5,6.3,8,7.3,13.4c0.7,23-8.1,41.4-26.4,55.3c-23.3,16.7-48.7,21.5-76.4,14.5
			c-2.5-1.2-5-2.5-7.3-3.9c1.9-20.6,13-33.8,33.1-39.7c14.1-0.6,28-2.8,41.6-6.7C2693.1,429.1,2702.4,418.1,2707.5,403.5z"/>
	</g>
	<g>
		<path class="st73" d="M2928.7,413.6c9.4,1.5,18.7,1.5,28.1,0c0.6,0.1,1,0.4,1.1,1.1c-10.1,1.5-20.2,1.5-30.3,0
			C2927.8,414,2928.1,413.6,2928.7,413.6z"/>
	</g>
	<g>
		<path class="st66" d="M2462.7,415.8c8.2,0.1,10.4,3.7,6.7,10.6C2460.8,427,2458.6,423.4,2462.7,415.8z"/>
	</g>
	<g>
		<path class="st74" d="M2805.2,419.2c15.4-0.2,25.7,6.9,30.9,21.2c2.2,22.9-8.1,35.6-30.9,38
			C2805.2,458.7,2805.2,438.9,2805.2,419.2z"/>
	</g>
	<g>
		<path class="st75" d="M2920.9,425.9c14.6-0.2,29.2,0,43.8,0.6c1.9,2.9,3.4,6.1,4.5,9.5c-18,1.5-35.9,1.5-53.9,0
			C2916.9,432.4,2918.7,429,2920.9,425.9z"/>
	</g>
	<g>
		<path class="st29" d="M2938.8,447.1c10.5,0,21,0,31.4,0c0,3,0,6,0,8.9c-18.7,0-37.4,0-56.2,0c0-2.6,0-5.2,0-7.8
			C2922.6,448.6,2930.8,448.2,2938.8,447.1z"/>
	</g>
	<g>
		<path class="st76" d="M2597.5,375.6c-25.6,1.1-51.5,1.5-77.5,1.1c0,31.7,0,63.4,0,95c-1.1-31.9-1.5-63.9-1.1-96.2
			C2545,375.6,2571.3,375.6,2597.5,375.6z"/>
	</g>
	<g>
		<path class="st77" d="M2938.8,447.1c-8,1.1-16.3,1.5-24.7,1.1c0,2.6,0,5.2,0,7.8c18.7,0,37.4,0,56.2,0c-18.9,1.1-38,1.5-57.3,1.1
			c0-3.4,0-6.7,0-10.1C2921.6,447.1,2930.2,447.1,2938.8,447.1z"/>
	</g>
	<g>
		<path class="st78" d="M2462.7,457.2c6.4,0.1,8.3,3.1,5.6,8.9C2459,467.7,2457.2,464.7,2462.7,457.2z"/>
	</g>
	<g>
		<path class="st79" d="M2916.4,467.2c16.5-0.4,33,0,49.4,1.1c-1.9,3-3.7,6-5.6,8.9c-12.7,1.3-25.4,1.5-38.2,0.6
			C2919.4,474.7,2917.5,471.2,2916.4,467.2z"/>
	</g>
	<g>
		<path class="st80" d="M2457.1,490.7c10.7-0.5,13.7,3.9,9,13.4c-7.2,3.1-11.3,0.9-12.4-6.7C2453.9,494.7,2455,492.4,2457.1,490.7z"
			/>
	</g>
	<g>
		<path class="st81" d="M2549.2,504.1c67-1.5,134-1.5,201,0C2683.4,504.1,2616.4,504.1,2549.2,504.1z"/>
	</g>
	<g>
		<path class="st82" d="M2989.4,504.1c6.6-1.1,9.7,1.5,9.5,7.8c-2.6,2.9-5.8,3.8-9.5,2.8C2986.5,511.2,2986.5,507.7,2989.4,504.1z"
			/>
	</g>
	<g>
		<path class="st83" d="M2549.2,504.1c67.2,0,134.2,0,201,0c-2.1,9.4-6,17.9-11.8,25.7c-30.4,37.9-69.5,51.9-117.4,41.9
			c-34.4-11-58.8-33-73-66C2548.1,505,2548.5,504.4,2549.2,504.1z"/>
	</g>
	<g>
		<path class="st84" d="M2886.1,507.5c9-0.6,11.2,3,6.7,10.6C2884.8,518.3,2882.5,514.8,2886.1,507.5z"/>
	</g>
	<g>
		<path class="st59" d="M2840,522c14.3-0.5,20.5,6.2,18.5,20.1c-4.8,9.9-12.1,12.4-21.9,7.3C2826.9,538.8,2828,529.7,2840,522z"/>
	</g>
	<g>
		<path class="st85" d="M2458.2,526.5c8.3-1.9,14.4,0.7,18.5,7.8c1.5,7.6-1.4,13-8.4,16.2c-12.2,1.3-17.6-4.1-16.3-16.2
			C2453.9,531.5,2456,528.9,2458.2,526.5z"/>
	</g>
	<g>
		<path class="st86" d="M2968,523.1c3.1,0.3,5.5,1.8,7.3,4.5c0.8,0.9,0.6,1.7-0.6,2.2c-7,2-12.2,6.1-15.7,12.3
			c-3.7,1.5-7.5,1.5-11.2,0C2953.9,535,2960.7,528.6,2968,523.1z"/>
	</g>
	<g>
		<path class="st87" d="M2977,541c9.7-1.2,15.6,2.9,18,12.3c-3.6,10.9-10.7,14.2-21.3,10.1C2966.9,554.7,2968,547.2,2977,541z"/>
	</g>
	<g>
		<path class="st88" d="M2923.1,552.2c10.9,0.7,21.7,1.5,32.6,2.2c-11.3,0.4-22.5,0-33.7-1.1
			C2922.1,552.7,2922.5,552.3,2923.1,552.2z"/>
	</g>
	<g>
		<path class="st89" d="M2913,574.6c25.5,0.7,50.9,1.5,76.4,2.2c-25.8,0.4-51.7,0-77.5-1.1C2912,575,2912.4,574.6,2913,574.6z"/>
	</g>
	<g>
		<path class="st90" d="M2457.1,576.8c15.4-0.2,30.7,0,46,0.6c3.2,4,2.8,7.8-1.1,11.2c-14.6,0.7-29.2,0.7-43.8,0
			C2452.6,585.1,2452.2,581.2,2457.1,576.8z"/>
	</g>
	<g>
		<path class="st52" d="M2796.2,576.8c22.5-0.2,44.9,0,67.4,0.6c4.6,4.2,4.2,7.9-1.1,11.2c-22.1,0.7-44.2,0.7-66.3,0
			C2792,584.7,2792,580.8,2796.2,576.8z"/>
	</g>
	<g>
		<path class="st91" d="M2723.2,601.4c46.8,0.7,93.6,1.5,140.4,2.2c-47.2,0.4-94.3,0-141.5-1.1
			C2722.2,601.8,2722.6,601.5,2723.2,601.4z"/>
	</g>
	<g>
		<path class="st92" d="M2977,621.5c11.6-0.9,17,4.3,16.3,15.7c-4.2,7.7-10.4,9.8-18.5,6.1C2966.8,635.1,2967.5,627.8,2977,621.5z"
			/>
	</g>
	<g>
		<path class="st93" d="M2897.3,621.5c16-0.3,20.5,6.6,13.5,20.7c-13.7,5.3-20.3,0.7-19.7-14
			C2892.6,625.4,2894.7,623.2,2897.3,621.5z"/>
	</g>
	<g>
		<path class="st94" d="M2938.8,623.8c9.2,0,12.8,4.5,10.7,13.4c-2.8,4.2-6.8,5.5-11.8,3.9C2931.5,634.8,2931.9,629,2938.8,623.8z"
			/>
	</g>
	<g>
		<path class="st95" d="M2450.3,630.5c139.6-0.2,279.3,0,418.9,0.6c4.5,3.7,4.5,7.4,0,11.2c-139.6,0.7-279.3,0.7-418.9,0
			C2445.9,638.2,2445.9,634.3,2450.3,630.5z"/>
	</g>
</g>
<text transform="matrix(1 0 0 1 191.3999 643.0189)" class="st96 st97">EXPRESSO</text>
</svg>
